<?xml version="1.0" encoding="utf-8"?>
<!-- Generator: Adobe Illustrator 24.0.2, SVG Export Plug-In . SVG Version: 6.00 Build 0)  -->
<svg version="1.1" id="Capa_1" xmlns="http://www.w3.org/2000/svg" xmlns:xlink="http://www.w3.org/1999/xlink" x="0px" y="0px"
	 viewBox="0 0 595.28 290.64" style="enable-background:new 0 0 595.28 290.64;" xml:space="preserve">
<g>
	<path d="M282.5,195.72c-0.32-0.05-0.86-0.15-1.48-0.26c0.53,6.27,0.99,12.43,1.6,18.56c0.49,4.89,1,9.7-1.08,14.43
		c-0.9,2.04-1.18,4.36-1.75,6.59c-2.85-5.63-5.56-11.16-6.1-17.45c-0.05-0.57-0.37-1.11-0.94-1.6c0.2,2.22,0.43,4.44,0.58,6.67
		c0.33,4.87,0.7,9.74,0.85,14.61c0.03,1.01-0.85,2.05-1.31,3.07c-0.42-0.02-0.85-0.04-1.27-0.07c-0.84-2.64-1.63-5.3-2.53-7.92
		c-0.37-1.08-1.31-2.04-1.42-3.11c-0.37-3.73-0.53-7.49-0.64-11.24c-0.02-0.53,0.69-1.1,1.1-1.62c2.41-3.02,4.83-6.02,7.24-9.03
		c-0.17-0.13-0.34-0.26-0.5-0.38c-2.44,2.37-5.09,4.56-7.25,7.16c-2.08,2.5-3.64,5.43-5.41,8.14c-0.46-7.86-0.93-16.03-1.44-24.65
		c1.98,1.47,3.62,2.69,5.26,3.91c0.11-0.12,0.22-0.25,0.33-0.37c-0.65-1.05-1.1-2.34-1.99-3.12c-3.71-3.25-4.73-7.32-4.37-12.06
		c0.31-4.11,0.29-8.25,0.5-12.37c0.04-0.81,0.46-1.6,0.78-2.65c-5.98,1.26-12.15,5.23-17.23-1.23c-0.15,2.88,0.07,5.98-0.54,8.89
		c-1.38,6.58-5.87,10.86-11.59,13.93c-2.45,1.31-2.67,1.54-0.92,3.91c4.28,5.8,8.68,11.52,12.97,17.31
		c4.9,6.61,9.75,13.26,14.63,19.88c0.61,0.82,1.3,1.58,1.93,2.35c-7.76-0.56-15.22-1.9-20.71-8.45c1.38,4.47,5.67,7.21,6.13,12.43
		c-5.83-3.29-11.36-5.92-14.69-11.78c-2.3-4.06-5.59-7.55-8.42-11.31c-2.21-2.94-5.21-5.61-6.36-8.92
		c-1.13-3.25-3.16-4.75-5.68-6.28c-0.55-0.33-1.01-0.83-2.03-1.69c0,1.63-0.08,2.68,0.01,3.71c0.66,7.34,1.66,14.67,1.88,22.02
		c0.09,3.04-1.49,6.14-2.31,9.21c-0.23-0.06-0.46-0.13-0.69-0.19c-1.27-4.41-2.54-8.81-4-13.9c0,5.24,0,9.75,0,14.34
		c-6.05-1.27-8.87-3.66-9.94-9.04c-0.73-3.69-0.8-7.21-0.42-10.89c0.22-2.06-0.33-4.21-0.54-6.32c-0.35-3.36-1-6.81,2.94-8.84
		c-0.17-0.23-0.34-0.46-0.52-0.69c-1.98,1-3.98,1.98-5.95,3c-1.44,0.75-2.76,1.91-4.28,2.26c-2.11,0.48-2.41,1.67-2.01,3.35
		c1.95,8.24,3.83,16.48,7.39,24.27c2.03,4.46,3.19,9.31,4.31,14.26c-3.18-1.36-5.79-2.93-7.26-6.24
		c-2.34-5.29-5.08-10.41-8.19-15.43c0.38,2.38,0.88,4.76,1.13,7.15c0.57,5.57,1.2,11.15,1.42,16.74c0.07,1.73-1.06,3.5-1.71,5.43
		c-2.16-3.68-3.97-6.76-5.89-10.02c-0.6,0.26-1.32,0.57-2.02,0.86c-2.09-3.02-5.36-16.25-5.17-17.61c-0.56-1.98-1.05-3.99-1.72-5.94
		c-0.41-1.19-0.85-2.57-1.74-3.35c-1.78-1.57-1.94-2.13-0.09-3.78c0.38-0.34,0.82-0.63,1.22-0.95c0.38-0.31,0.75-0.64,0.87-1.48
		c-3.91,1.68-7.83,3.33-11.72,5.05c-1.69,0.75-3.39,1.52-4.95,2.49c-0.58,0.36-1.09,1.29-1.11,1.98c-0.1,3.35,0.02,6.7-0.04,10.06
		c-0.02,1.08-0.32,2.16-0.5,3.24c-0.25,0.02-0.5,0.05-0.74,0.07c-0.67-4.47-1.34-8.94-2.02-13.41c-0.28,0.04-0.55,0.08-0.83,0.12
		c0,2.41,0.11,4.82-0.04,7.22c-0.12,1.95-0.42,3.91-0.9,5.81c-0.43,1.7-1.33,3.1-3.82,1.74c-0.82,3.12-1.56,5.97-2.3,8.82
		c-0.23-0.02-0.46-0.05-0.69-0.07c-0.29-0.64-0.59-1.28-0.88-1.92c-0.98,0.4-1.88,0.77-2.78,1.14c-2.52-5.35,0.57-10.41-0.59-15.62
		c-0.81,2.6-1.53,5.23-2.46,7.8c-1.01,2.8-2.06,5.6-3.35,8.28c-1,2.09-1.72,0.4-2.23-0.23c-1.01,0.12-2.15,0.59-2.61,0.22
		c-0.53-0.43-0.7-1.62-0.62-2.44c0.42-4.52,0.98-9.02,1.47-13.53c0.09-0.83,0.09-1.67,0.17-3.15c-5.92,1.29-11.5,2.51-17.08,3.73
		c-0.17-0.35-0.34-0.71-0.51-1.06c1.32-0.91,2.52-2.12,3.98-2.68c7.58-2.88,15.23-5.6,22.86-8.37c1.35-0.49,2.7-0.98,4.05-1.47
		c-0.05-0.21-0.11-0.43-0.16-0.64c-8.54,1.71-17.08,3.43-26.18,5.25c6.51-5.8,14.31-8.02,21.73-10.96
		c-0.09-0.32-0.19-0.63-0.28-0.95c-1.69,0.34-3.38,0.68-5.39,1.09c0.36-2.52,0.66-5.09,1.1-7.64c0.95-5.49,2.05-10.95,2.95-16.45
		c0.56-3.43,1.38-6.49,5.72-7c-1.1-0.38-2.21-0.76-3.72-1.29c0.57-0.98,0.9-1.94,1.56-2.57c0.68-0.65,1.67-0.98,2.35-2.04
		c-0.66,0.04-1.32,0.08-2.16,0.14c0-0.56-0.1-1.15,0.02-1.7c0.99-4.6,1.98-9.19,3.04-13.77c0.55-2.37,1.26-4.62,4.52-4.19
		c0.62,0.08,1.42-0.15,1.94-0.52c2.23-1.6,4.52-1.89,7.01-0.69c0.35,0.17,1.01,0.35,1.15,0.19c2.08-2.33,4.87-3.08,7.74-3.92
		c2.05-0.6,3.72-0.89,5.33,0.7c2.51-2.44,3.19-2.28,4.15,1.23c2.48,9.08,4.92,18.17,7.33,27.27c1.69,6.39,3.31,12.81,5.03,19.5
		c5.46-1.11,11.03-2.23,16.61-3.36c-0.02-0.28-0.04-0.55-0.06-0.83c-1.4,0.11-2.8,0.19-4.2,0.33c-3.41,0.36-3.73-0.08-2.5-3.3
		c0.23-0.61,0.28-1.37,0.19-2.03c-0.52-3.81-0.89-7.65-1.72-11.4c-0.89-4.03-0.67-4.78,3.05-6.06c1.75-0.6,3.47-1.3,5.2-1.96
		c-0.07-0.25-0.13-0.5-0.2-0.75c-1.81,0.44-3.68,0.71-5.42,1.35c-4.54,1.67-5.62,1.09-6.53-4.03c1.04-0.54,2.14-1.11,2.93-1.52
		c-2.03-0.48-4.28-1.01-6.54-1.55c-0.04-0.32-0.08-0.65-0.12-0.97c0.96-0.74,1.81-1.75,2.89-2.19c10.02-4.16,20.22-7.63,31.28-7.37
		c4.69,0.11,9.45-0.1,14.04,0.68c4.77,0.8,11.58,5.33,12.8,11.99c0.6,3.27,1.1,3.46,3.36,2.16c-0.57-2.58-1.03-5.19-1.76-7.72
		c-0.48-1.66-0.08-2.83,1.44-3.29c3.9-1.19,7.81-2.5,11.82-3.2c5.98-1.06,12.04-1.71,18.08-2.39c2.43-0.27,5.13-1.59,6.95,0.98
		c8.08-5.32,17.14-4.08,26.38-4.59c-2.99,4.23-7.39,5.43-11.25,7.43c0.14,0.23,0.21,0.45,0.3,0.46c3.44,0.41,3.44,0.41,2.98,3.74
		c-0.67,4.82-1.97,5.98-8.28,7.14c-1.77,0.32-3.57,0.48-5.37,0.58c-3.83,0.22-4.7,0.95-4.62,4.85c0.07,3.56,0.6,7.11,0.69,10.67
		C282.6,185.59,282.5,190.52,282.5,195.72z M207.18,189.76c0.95-0.23,1.56-0.24,2.01-0.51c3.84-2.4,7.76-4.68,11.41-7.34
		c1.8-1.32,3.64-3.14,4.45-5.14c1.34-3.28,3.25-5.42,6.7-6.19c0.04-0.01,0-0.31,0-0.83c-1.24,0-2.59,0.27-3.76-0.07
		c-1.36-0.4-2.53-1.41-3.84-2.02c-2.09-0.97-4.15-2.18-6.36-2.64c-3.44-0.71-7-0.86-10.67-1.27
		C207.59,172.79,209.64,181.1,207.18,189.76z M164.33,200.59c-1.22-0.95-1.88-1.31-2.34-1.85c-1.01-1.17-2.41-2.3-2.76-3.68
		c-1.29-5.03-2.11-10.18-3.31-15.23c-0.64-2.69-0.74-5.21,0.51-7.73c0.33-0.67,0.39-1.48,0.58-2.23c-0.29-0.12-0.58-0.24-0.87-0.36
		c-0.73,1.54-1.83,3.02-2.11,4.65c-1.18,6.72-2.16,13.48-3.13,20.24c-0.47,3.26-0.76,6.54-1.17,10.17
		C154.61,203.23,159.13,202,164.33,200.59z M140.73,203.18c0.84,0.66,2.14,1.69,3.76,2.96c0.78-2.88,1.51-5.55,2.24-8.23
		c-0.23-0.06-0.47-0.13-0.7-0.19c-0.66,1.18-1.32,2.37-1.98,3.55c-0.28-0.07-0.56-0.14-0.85-0.21c0.28-4.47,0.56-8.94,0.84-13.41
		c-0.25-0.02-0.51-0.03-0.76-0.05c-0.42,4.21-0.8,8.42-1.29,12.62C141.89,201.03,141.33,201.8,140.73,203.18z M146.8,160.73
		c-0.34-0.03-0.68-0.06-1.02-0.09c-0.71,4.69-1.41,9.38-2.12,14.07c0.27,0.04,0.55,0.08,0.82,0.12
		C145.26,170.12,146.03,165.42,146.8,160.73z M276.24,182.9c0.16,0,0.31,0,0.47,0c0.15-2.77,0.29-5.54,0.44-8.31
		c-0.3-0.01-0.61-0.01-0.91-0.02C276.24,177.35,276.24,180.13,276.24,182.9z"/>
	<path d="M422.35,137.5c1.21,0.6,2.42,1.2,3.62,1.81c-0.09,0.24-0.17,0.47-0.26,0.71c-4.68-1.4-9.36-2.8-14.43-4.32
		c1.11-1.03,1.83-1.7,2.96-2.75c-3.89-2.14-7.55-4.16-11.21-6.17c-0.2,0.23-0.39,0.46-0.59,0.69c1.41,1.6,2.83,3.2,4.24,4.81
		c-6.12-3.42-10.99-8.06-14.56-14.02c-2.41-4.03-4.8-8.08-7.17-12.14c-0.33-0.57-0.55-1.25-0.65-1.9
		c-0.68-4.48-1.17-8.99-2.02-13.44c-0.45-2.33,0.24-3.24,2.45-3.78c4.06-1,8.07-2.25,12.08-3.46c1.2-0.36,2.34-0.96,3.5-1.45
		c-0.08-0.24-0.15-0.48-0.23-0.71c-2.17,0.68-4.32,1.39-6.5,2.03c-2.2,0.65-4.38,1.41-6.63,1.8c-2.3,0.39-4.66,0.39-7,0.56
		c-0.06-0.24-0.11-0.48-0.17-0.72c1.2-0.94,2.4-1.88,3.79-2.97c-0.89-0.7-1.53-1.19-1.77-1.39c0.16-2.21,0.22-4.1,0.44-5.97
		c0.56-4.73,1.17-9.45,1.81-14.17c0.06-0.45,0.38-1.06,0.74-1.23c3.27-1.48,3.36-4.15,3.23-7.24c-0.08-1.73,0.49-3.77,1.46-5.2
		c2.01-2.97,4.46-5.66,6.79-8.41c1-1.18,1.66-2.12-1.65-2.74c1.32-0.79,1.92-1.13,2.5-1.51c4.47-2.86,8.83-5.89,13.42-8.56
		c5.34-3.1,11.22-4.41,17.72-4.32c-5.64,1.99-10.99,3.87-16.34,5.75c0.11,0.34,0.21,0.68,0.32,1.03c1.22-0.3,2.45-0.58,3.66-0.92
		c3.68-1.02,7.29-2.42,11.03-3.02c8.43-1.34,16.75-0.48,24.85,2.28c1.2,0.41,2.56,0.41,3.68,0.95c1.13,0.54,3.38,0.06,2.85,2.58
		c-0.04,0.21,0.88,0.87,1.38,0.89c3.58,0.16,5.56,2.8,7.73,5c3.08,3.11,5.43,7.26,9.02,9.44c4.5,2.74,5.71,7.09,7.36,11.13
		c1.71,4.2,2.19,8.9,3.2,13.38c0.03,0.12-0.12,0.28-0.23,0.51c-1.3-2.61-2.55-5.17-3.85-7.71c-1.3-2.55-2.66-5.07-4.28-8.16
		c2.23,10,4.32,19.35,6.45,28.88c0.58-2.92,1.16-5.89,1.75-8.86c0.12-0.02,0.23-0.04,0.35-0.06c0.25,2.51,0.5,5.03,0.77,7.54
		c0.99,9.29-1.18,18.05-4.37,26.65c-1.22,3.29-2.04,6.76-3.51,9.92c-0.93,2-2.52,3.81-4.15,5.34c-5.78,5.41-12.53,9.31-20.08,11.66
		c-10.48,3.26-21.16,3.79-31.95,1.73c-0.46-0.09-0.94-0.08-1.41-0.12C422.45,137.25,422.4,137.38,422.35,137.5z M447.99,53.74
		c-2.53-1.53-4.81-3.12-7.27-4.35c-2.06-1.03-4.28-1.86-6.53-2.38c-5.12-1.21-10.77,2.66-15.76-2.12c0.31,2.77,1.17,5.12,0.64,7.12
		c-0.57,2.16-2.42,3.99-3.66,5.89c6.42,4.89,12.74,9.7,19.23,14.64C438.91,66.53,443.29,60.35,447.99,53.74z M452.03,105.49
		c-1.87-1.23-4.27-2.64-6.49-4.31c-3.22-2.41-6.29-5.03-9.46-7.51c-0.98-0.77-2-1.42-2.96,0.21c-2.74,4.65-5.61,9.22-8.27,13.91
		c-0.37,0.64-0.17,2.32,0.32,2.62c4.96,3.07,15.19,4.95,20.89,1.5c2.56-1.55,5.04-3.27,7.45-5.05c1.68-1.24,1.68-3.27,0.11-4.73
		c-2.88-2.68-5.73-5.42-8.75-7.94c-2.55-2.13-5.32-3.99-7.99-5.97c-0.14,0.16-0.28,0.33-0.42,0.49
		C441.77,94.44,447.07,100.16,452.03,105.49z M457.97,76.29c7.41,0.87,15.25-0.42,23.01-2.4c-1.76-0.24-3.5-0.26-5.23-0.23
		c-4.35,0.07-8.6,2.18-12.94,1.05c-4.21-1.1-7.36-2.1-6.85-7.01c0.13-1.28-0.1-2.6-0.16-3.94c-4.53,5.52-9.04,11.01-13.83,16.84
		c4.92,4.1,9.74,8.12,15.15,12.62c0-3.47-0.11-6.1,0.03-8.71C457.28,81.91,457.65,79.33,457.97,76.29z M410.79,71.87
		c-0.27,0.17-0.53,0.33-0.8,0.5c0.28,5.18-0.81,10.41,1.35,15.55c0.68,1.62,0.18,3.74,0.16,5.63c-0.01,0.91-0.61,2.22-0.2,2.67
		c1.98,2.19,1.99,4.42,0.78,6.89c-0.21,0.42-0.25,0.93-0.38,1.4c0.83-0.59,1.3-1.3,1.8-1.98c3.75-5.11,7.5-10.23,11.26-15.33
		c0.84-1.15,1.26-2.11-0.17-3.26c-2.66-2.15-5.16-4.48-7.73-6.74C414.83,75.42,412.81,73.64,410.79,71.87z M439.53,76.75
		c0.23,0.18,0.46,0.36,0.69,0.53c9.47-11.01,18.94-22.02,28.67-33.34c-1.54,0.42-2.88,1.27-3.84,0.95c-1.8-0.61-2.82,0.08-3.77,1.27
		c-2.25,2.79-4.58,5.52-6.63,8.45C449.54,61.94,444.56,69.36,439.53,76.75z M401.64,119.38c0.03,0.08,0.06,0.16,0.09,0.24
		c1.23-0.88,2.36-1.98,3.71-2.57c1.63-0.71,3.6-1.64,5.15-1.28c1.84,0.42,2.77,0,3.65-1.31c3.05-4.54,6.07-9.11,9.13-13.65
		c2.2-3.27,4.45-6.49,6.61-9.78c0.37-0.57,0.42-1.35,0.62-2.03c-0.3-0.15-0.6-0.3-0.9-0.46c-2.16,2.89-4.53,5.65-6.42,8.7
		c-3.61,5.81-7.87,10.94-13.45,14.98c-0.15-0.79-0.27-1.47-0.48-2.57C406.59,113.14,404.12,116.26,401.64,119.38z M428.14,80.1
		c0.16-0.17,0.31-0.34,0.47-0.51c-0.1-0.22-0.14-0.49-0.3-0.64c-5.73-5.64-11.39-11.36-17.24-16.87c-3.67-3.46-7.62-6.63-11.49-9.88
		c-0.34-0.28-0.98-0.2-1.48-0.29c0.03,0.56-0.14,1.27,0.14,1.67c0.68,0.98,1.48,1.9,2.37,2.69c6.27,5.58,12.55,11.14,18.87,16.65
		C422.31,75.37,425.25,77.7,428.14,80.1z M475.15,113.35c0.31-0.27,0.62-0.54,0.93-0.81c-0.49-1.13-0.66-2.82-1.52-3.31
		c-6.68-3.81-11.13-10.91-18.92-13.04c-0.16,0.2-0.32,0.41-0.48,0.61C461.83,102.31,468.49,107.83,475.15,113.35z M465.01,124.21
		c-1.93,1.36-3.86,2.71-5.78,4.07c0.17,0.24,0.34,0.48,0.51,0.72C462.19,128.39,464.42,127.45,465.01,124.21z M437.12,132.48
		c0.22,0.19,0.44,0.39,0.66,0.58c2.17-2.35,4.34-4.7,6.51-7.04c-0.24-0.22-0.49-0.43-0.73-0.65
		C441.42,127.74,439.27,130.11,437.12,132.48z M429.96,117.22c-0.04,0.31-0.07,0.62-0.11,0.94c2.27,0.3,4.54,0.59,6.81,0.89
		c0.04-0.29,0.07-0.58,0.11-0.86C434.5,117.87,432.23,117.54,429.96,117.22z M480.58,95.01c-0.32-0.04-0.65-0.09-0.97-0.13
		c-0.25,2.28-0.49,4.55-0.74,6.83c0.28,0.03,0.57,0.06,0.85,0.09C480.01,99.54,480.3,97.28,480.58,95.01z"/>
	<path d="M167.1,24.88c-0.1,0.36-0.2,0.74-0.38,1.37c9.89-1.66,19.67-3.3,29.63-4.98c0.31,1.4,0.63,2.83,1.08,4.81
		c6.12-7.19,14.58-6.92,22.34-8.59c1.49-0.32,3-0.53,5.01-0.88c-6.15,9.15-12.05,17.93-17.96,26.71c-0.14-0.03-0.27-0.07-0.41-0.1
		c0.43-1.73,0.85-3.46,1.28-5.2c-0.1-0.05-0.21-0.09-0.31-0.14c-0.61,1.08-1.17,2.2-1.84,3.25c-5.28,8.31-10.38,16.74-15.96,24.85
		c-2.07,3.01-4.63,5.62-5.78,9.23c-0.67,2.1-2.42,3.03-4.51,3.79c-4.85,1.76-9.56,3.87-14.11,6.4c16.35-4.88,32.69-9.75,49.65-14.81
		c-3.27,5.45-13.54,11.66-23.03,14.38c0.12,0.19,0.25,0.38,0.37,0.57c-0.69,0.65-1.29,1.69-2.1,1.9c-4.3,1.13-8.69,1.93-12.99,3.09
		c-7.35,1.99-14.64,4.17-21.96,6.23c-1.31,0.37-2.7,0.45-4.01,0.82c-0.44,0.12-0.75,0.73-1.11,1.12c0.46,0.19,0.97,0.62,1.38,0.55
		c5.08-0.89,10.15-1.79,15.2-2.82c1.87-0.38,3.66-1.1,6.31-1.92c-2.56,3.43-4.67,6.26-6.77,9.1c-3.12,4.21-6.24,8.41-9.35,12.63
		c-0.46,0.62-1.02,1.28-1.15,1.99c-0.44,2.4-2.19,3.13-4.15,2.98c-2.73-0.21-4.59,0.76-6.08,2.97c-0.59,0.88-1.64,1.44-2.96,2.55
		c5.36-1.72,10.06-3.63,14.94-4.7c9.42-2.08,18.94-3.69,28.42-5.48c2.67-0.51,5.34-1.01,8.02-1.47c1.93-0.33,3.67-0.91,5.89-0.26
		c1.96,0.57,4.43-0.8,6.7-1.06c3.89-0.44,7.81-0.67,11.71-0.99c0.09,0.21,0.18,0.42,0.26,0.62c-0.86,0.59-1.72,1.17-2.54,1.73
		c2.54,1.45,4.49,2.56,6.44,3.67c-0.06,0.28-0.12,0.56-0.18,0.84c-4.15,1.23-8.29,2.46-12.44,3.69c0.03,0.27,0.06,0.54,0.08,0.81
		c4.36,0.86,8.73,1.71,13.09,2.57c0,0.22-0.01,0.44-0.01,0.66c-0.6,0.18-1.21,0.36-2.62,0.77c3.28,0.98,5.88,1.75,8.13,2.42
		c-9.53,4.04-20,3.8-30.2,5.21c-1.21,0.17-2.27,1.25-3.49,1.65c-1.34,0.45-3,1.18-4.13,0.76c-1.92-0.71-3.36-1.19-5.19,0.27
		c-0.88,0.71-2.42,0.66-3.68,0.82c-5.78,0.72-11.55,1.87-17.35,1.96c-7.82,0.13-15.02,2.95-22.57,4.11
		c-5.9,0.91-11.89,1.21-17.83,1.79c-0.82,0.08-1.63,0.25-2.79,0.43c2.13-3.22,4.08-6.17,6.02-9.12c-0.1-0.06-0.2-0.11-0.29-0.17
		c-3.4,3.36-6.33,7.51-10.33,9.84c-3.67,2.14-8.48,2.31-12.98,2.98c10.33-16.65,23.02-31.47,32.48-48.57
		c0.49,0.38,1.23,0.95,2.16,1.67c0.47-1.19,0.86-2.18,1.5-3.8c-9.63,1.45-18.71,2.82-27.79,4.18c-0.08-0.13-0.16-0.27-0.25-0.4
		c1.88-1.07,3.76-2.14,5.64-3.2c3.28-1.84,6.45-3.93,9.87-5.44c3.79-1.68,7.78-2.96,11.76-4.16c2.14-0.64,3.66-1.41,4.83-3.6
		c1.56-2.91,4.04-5.32,5.93-8.07c1.03-1.5,1.46-3.4,2.5-4.88c4.09-5.81,8.3-11.54,12.51-17.27c2.23-3.04,4.59-5.99,6.82-9.03
		c0.48-0.65,0.67-1.51,0.61-2.73c-1.11,0.58-2.17,1.38-3.35,1.69c-3.47,0.93-6.99,1.69-10.51,2.46c-2.42,0.53-4.84,1.15-7.3,1.4
		c-1.93,0.2-3.97,0.13-5.86-0.27c-1.8-0.38-3.47-1.36-5.5-2.2c0.83,2.83-1.24,3.36-2.86,3.57c-7.9,1.02-15.82,1.81-23.74,2.68
		c-0.14,0.01-0.29-0.12-0.86-0.36c2.2-1.57,4.2-3.01,6.2-4.44c-0.03-0.19-0.06-0.37-0.09-0.56c-4.2-0.19-8.4-0.38-12.6-0.57
		c-0.02-0.32-0.04-0.64-0.07-0.96c4.93-1.16,9.86-2.33,14.79-3.49c-0.03-0.21-0.06-0.41-0.09-0.62c-7.92,0.8-15.83,1.59-23.75,2.39
		c-0.1-0.37-0.19-0.75-0.29-1.12c5.01-1.85,10.01-3.7,15.45-5.71c-3.24-0.94-6.15-1.78-9.06-2.62c0.01-0.17,0.02-0.35,0.04-0.52
		c8.4-1.05,16.8-2.11,25.2-3.16c-0.01-0.32-0.02-0.63-0.02-0.95c-1.27-0.33-2.55-0.66-3.82-0.99c-0.01-0.23-0.02-0.46-0.03-0.69
		C138.19,27.73,152.6,26.12,167.1,24.88z M172.76,72.07c0.09-0.29,0.18-0.59,0.27-0.88c-3.51-1.49-7.03-2.98-10.54-4.47
		c-0.11,0.26-0.22,0.52-0.32,0.78C165.69,69.01,169.23,70.54,172.76,72.07z M170.98,127.69c-0.28-0.25-0.55-0.5-0.83-0.75
		c-1.36,1.59-2.71,3.18-4.07,4.77c0.23,0.21,0.46,0.42,0.69,0.63C168.17,130.78,169.58,129.24,170.98,127.69z"/>
	<path d="M173.7,279c5.11-0.58,10.21-1.15,15.32-1.73c0.02-0.18,0.03-0.36,0.05-0.55c-2.45-0.35-4.91-1.04-7.35-1
		c-9.35,0.14-18.69,0.55-28.04,0.77c-4.44,0.11-8.89,0.02-13.39-0.32c4.15-0.57,8.3-1.15,12.53-1.74
		c-8.77-2.43-17.7-1.14-26.52-1.46c-0.03-0.31-0.07-0.63-0.1-0.94c7.21-0.95,14.43-1.9,21.64-2.84c-0.03-0.28-0.06-0.55-0.09-0.83
		c-13.2,1.18-26.41,2.36-39.61,3.53c-0.08-0.41-0.15-0.81-0.23-1.22c3.58-0.93,7.1-2.18,10.74-2.72c8.31-1.23,16.67-2.22,25.03-3.1
		c6.57-0.69,13.17-1.11,19.77-1.58c3.86-0.27,7.72-0.39,11.58-0.61c0.47-0.03,0.93-0.25,1.36-0.81c-13.38,0-26.76,0-40.87,0
		c2.98-2.55,5.96-2.52,8.76-2.66c9.53-0.49,19.07-0.67,28.59-1.19c9-0.5,18-1.15,26.97-1.98c13.68-1.27,27.35-1.69,41.1-1.1
		c7.5,0.32,15.05-0.63,22.58-1.13c5.13-0.34,10.24-1.14,15.37-1.3c14.7-0.45,29.4-0.84,44.11-0.93c7.45-0.05,14.91,0.59,22.36,1.13
		c-24.53,1.96-49.18,0.38-73.7,2.49c37.17-0.31,74.33-1.24,111.48,1.35c0.01-0.49,0.02-0.97,0.03-1.46
		c-10.26-0.28-20.52-0.57-30.78-0.85c-0.01-0.28-0.01-0.55-0.02-0.83c4.45-0.3,8.91-0.84,13.36-0.86
		c7.51-0.04,15.02,0.24,22.53,0.38c10.15,0.19,20.31,0.15,30.43,0.7c3.26,0.18,6.16-0.19,9.24-1.03c2.12-0.58,4.54-0.19,6.81-0.11
		c12.79,0.49,25.59,1.02,38.38,1.56c0.54,0.02,1.07,0.35,1.52,0.94c-5.36,0-10.72,0-16.09,0c-0.01,0.19-0.02,0.38-0.04,0.57
		c13.26,1.29,26.52,2.58,39.77,3.87c-13.56,2.71-27.09-0.31-40.62,0.1c-0.01,0.23-0.02,0.47-0.03,0.7
		c19.45,1.96,38.9,3.92,58.34,5.87c-0.02,0.46-0.03,0.92-0.05,1.38c-17.62,0.22-35.23,0.44-52.85,0.67
		c8.18-0.11,16.12,1.37,23.94,4.14c-0.59,0.09-1.19,0.26-1.78,0.26c-6.02,0.04-12.05,0.16-18.07,0.03c-2.54-0.05-5.13-0.41-7.6-1.04
		c-4.51-1.14-8.81,0.21-13.22,0.58c-4.56,0.39-9.17,0.2-13.75,0.24c-3.59,0.03-7.17,0.06-10.76,0.05
		c-5.84-0.01-11.68,0.03-17.52-0.12c-3.6-0.09-7.2-0.44-10.79-0.78c-1.6-0.15-3.17-0.54-4.76-0.83c-2.56-0.46-5.12-1.26-7.69-1.3
		c-5.4-0.08-10.81,0.41-16.21,0.35c-10.63-0.13-21.26-0.59-31.9-0.68c-2.81-0.02-5.63,0.83-8.41,1.61
		c20.53,0.58,41.08-0.71,61.45,2.3c0,0.22-0.01,0.45-0.01,0.67c-5.95,0-11.9,0.07-17.84-0.02c-5.75-0.08-11.51-0.32-17.26-0.49
		c-0.34-0.01-0.69-0.05-1.03-0.03c-12.98,1-25.97-0.54-38.97,0.39c-9.68,0.69-19.43,0.49-29.15,0.6c-2.48,0.03-4.99-0.6-7.45-0.4
		c-5,0.4-9.95,1.36-14.95,1.69c-5.49,0.37-11.01,0.35-16.52,0.41c-3.73,0.04-7.47-0.08-11.21-0.12c-1.02-0.01-2.05,0-3.22,0
		c0.4,0.94,0.74,1.75,1.22,2.9c-18.7,0.38-37.26,0.77-55.83,1.15C173.76,279.46,173.73,279.23,173.7,279z M431.51,264.51
		c0-0.3,0-0.59-0.01-0.89c-8.23,0-16.47,0-24.7,0c0,0.3,0,0.59,0,0.89C415.04,264.78,423.27,265.62,431.51,264.51z M284.79,259
		c0-0.36,0.01-0.72,0.01-1.08c-8.47,0.33-16.94,0.66-25.41,0.98c0.01,0.3,0.02,0.59,0.03,0.89
		C267.88,259.52,276.34,259.26,284.79,259z M172.48,273.02c5.01,1.23,10.06,1.1,15.1,0.87c0-0.29-0.01-0.58-0.01-0.87
		C182.54,273.02,177.51,273.02,172.48,273.02z M319.98,261.55c0.02,0.24,0.03,0.47,0.05,0.71c4.81-0.41,9.63-0.82,14.44-1.22
		c-0.02-0.28-0.05-0.56-0.07-0.84C329.59,260.64,324.79,261.09,319.98,261.55z M400.82,269.35c0,0.13,0,0.26-0.01,0.39
		c5.19,0,10.38,0,15.57,0c0-0.13,0.01-0.26,0.01-0.39C411.2,269.35,406.01,269.35,400.82,269.35z M445.06,254.66
		c-0.01,0.1-0.01,0.19-0.02,0.29c3.05,0.18,6.09,0.35,9.14,0.53c0.01-0.27,0.03-0.55,0.04-0.82
		C451.16,254.66,448.11,254.66,445.06,254.66z M217.66,258.05c1.99,1,3.94,1.39,5.81,0.7c-0.02-0.33-0.04-0.65-0.06-0.98
		C221.5,257.86,219.58,257.95,217.66,258.05z"/>
	<path d="M309.86,63.46c-5.45-2.93-4.39-8.14-4.51-12.92c-0.06-2.3-0.01-4.6-0.01-6.97c-1.35,0.17-2.42,0.3-4.15,0.51
		c0.56-2.21,1.12-4.05,1.45-5.93c0.11-0.61-0.2-1.46-0.61-1.94c-0.57-0.67-1.42-1.09-2.28-1.71c1.61-1.84,3.38-1.8,5.12-1.25
		c1.7,0.54,3.29,1.45,4.98,2.04c4.22,1.46,8.48,2.83,12.92,3.69c-3.37-2.65-8.48-1.77-11.04-6.2c0.99-2.06,2.11-4.41,3.23-6.76
		c-0.18-0.14-0.36-0.28-0.55-0.41c-1.85,2.42-3.69,4.84-5.58,7.31c-2.33-0.74-4.72-1.49-6.98-2.21c0.07-0.44,0.34-1.02,0.22-1.51
		c-0.66-2.76,0.29-4.25,2.55-5.9c3.8-2.78,8.14-3.06,12.46-3.17c7.99-0.2,16.01-0.41,23.97,0.12c4.79,0.32,9.48,2.01,14.45,3.14
		c-0.75,3.8-1.46,7.36-2.16,10.93c0.2,0.06,0.41,0.13,0.61,0.19c1.15-3.34,2.29-6.69,3.49-10.18c0,0,0.26-0.12,0.49-0.08
		c10.08,1.82,20.82,12.18,21.95,22c0.34,2.9-1.31,6.08-2.34,9.03c-0.19,0.55-1.76,0.78-2.72,0.88c-2.07,0.23-4.17,0.29-6.25,0.42
		c-0.01,0.26-0.01,0.53-0.02,0.79c2.57,0.27,5.13,0.54,7.7,0.81c0.15,0.41,0.3,0.81,0.45,1.22c-3,2.97-6,5.94-9.01,8.89
		c-0.24,0.23-0.71,0.29-0.86,0.55c-1.72,3-4.85,2.18-7.44,2.99c-2.86,0.89-5.44,2.7-8.06,4.26c-0.2,0.12,0.08,1.66,0.54,2.17
		c0.82,0.91,1.96,1.53,2.96,2.28c-0.21,0.3-0.42,0.6-0.62,0.9c-3.21,0-6.41,0-9.62,0c0,0.21,0,0.42,0,0.63
		c2.46,0.2,4.91,0.41,7.37,0.59c2.12,0.16,3.94,0.7,5.31,2.6c7.21,9.96,14.82,19.6,23.79,28.07c0.85,0.81,1.43,1.9,2.38,3.2
		c-1.21,0.42-2.18,0.75-3.39,1.16c4.92,6.99,9.8,13.93,14.6,20.74c-2.74,0-4.97,0.05-7.19-0.04c-0.53-0.02-1.08-0.44-1.55-0.78
		c-4.27-3.03-8.4-6.28-12.84-9.03c-2.18-1.35-4.93-1.8-7.55-2.35c2.06,4.12,5.79,7.02,6.46,12.32c-1.43-0.97-2.55-1.54-3.42-2.36
		c-2.63-2.47-5.22-4.99-7.71-7.59c-2.11-2.21-4.2-4.15-5.42-7.39c-1.57-4.18-4.98-7.65-7.49-11.5c-0.72-1.11-1.05-2.47-1.05-3.81
		c-1.25-0.91-2.74-1.61-3.69-2.77c-2.32-2.8-4.41-5.79-6.52-8.76c-0.27-0.38-0.33-1.39-0.09-1.57c1.87-1.34,0.55-2.43-0.07-3.7
		c-0.74-1.51-1.24-3.14-1.82-4.73c-0.33-0.92-0.62-1.85-1.05-3.11c-5.94,11.56-2.59,23.63-4.1,35.23
		c-2.8-7.85-2.47-16.22-3.75-24.32c-0.22,0.02-0.44,0.05-0.66,0.07c0.37,5.27,0.89,10.53,1.07,15.81c0.14,4.02-0.28,8.06-0.22,12.09
		c0.04,2.54-1.21,3.04-3.32,2.79c-0.32-0.04-0.65,0.04-1.06,0.07c0.28,4.49-0.7,8.6-2.56,12.58c-0.51-1.73-0.89-3.11-2.66-4.2
		c-1.26-0.78-1.95-2.96-2.3-4.64c-0.62-2.91-0.78-5.91-1.13-8.88c-0.15-1.27-0.31-2.54-0.56-4.6c-0.66,1.34-1.17,1.99-1.3,2.71
		c-0.65,3.61-1.03,7.27-1.84,10.84c-0.35,1.55-1.38,3.02-2.36,4.33c-0.63,0.85-1.72,1.36-2.66,2.07c-0.14-1-0.5-2.43-0.51-3.86
		c-0.07-8.33-0.28-16.67,0.02-24.99c0.21-5.8,1.23-11.56,1.72-17.35c0.11-1.26-0.72-2.58-0.73-3.88
		c-0.08-7.28-0.04-14.56-0.04-22.41c2.24,1.17,3.72,1.93,5.19,2.7c3.58,3.05,7.16,6.12,10.79,9.12c0.21,0.17,0.86-0.19,1.31-0.3
		c0.13-0.28,0.25-0.56,0.38-0.84C318.21,68.74,314.03,66.1,309.86,63.46z M329.33,66.58c1.64-0.66,2.52-0.95,3.33-1.36
		c4.89-2.47,9.86-4.79,14.62-7.5c3.4-1.93,6.64-4.21,9.69-6.67c2.56-2.07,2.48-3.15-0.02-5.34c-1.15-1.01-2.79-1.46-4.17-2.23
		c-1.11-0.62-2.18-1.33-3.22-2.06c-0.59-0.41-1.04-1.07-1.67-1.37c-3.45-1.65-6.93-3.19-10.78-3.82c-2.11-0.35-4.13-1.2-6.31-1.86
		C330.32,45.17,329.84,55.53,329.33,66.58z M371.33,118.37c-0.27-2.39-0.52-4.69-0.78-6.99
		C369.29,113.97,368.7,116.43,371.33,118.37z"/>
	<path d="M457.01,228.34c-3.34-3.35-10.61-2.82-10.09-10.21c1.02,0.32,1.95,0.7,2.91,0.92c4.92,1.11,9.84,2.3,14.8,3.22
		c2.28,0.42,4.71-4.08,3.35-6.41c-1.19-2.04-2.67-4.09-4.49-5.53c-3.07-2.42-6.51-4.38-9.83-6.5c-7.86-5.01-15.73-10-23.87-15.17
		c1.24-0.94,2.55-1.92,3.85-2.91c-0.15-0.23-0.3-0.47-0.45-0.7c-1.47,0.84-2.94,1.68-4.64,2.66c-1.4-0.61-2.77-1.56-2.56-3.82
		c0.08-0.82-0.15-1.72-0.44-2.5c-1.12-2.99,0.29-5.22,1.95-7.5c0.61-0.84,0.77-2,1.14-3.01c0.75-2.05,0.99-4.58,2.36-6.05
		c3.62-3.85,7.47-7.59,11.73-10.7c4.61-3.37,10.13-4.07,15.89-3.64c3.82,0.29,7.73,0.01,11.53-0.51c2.4-0.33,3.02,0.47,2.93,2.5
		c-0.1,2.25-0.28,4.51,0.13,6.79c0.77-2.6,1.54-5.19,2.17-7.31c3.41-0.38,6.41-1.01,9.4-0.96c3.13,0.06,6.24,0.78,9.43,1.22
		c-2.03,4.89-3.95,9.52-5.88,14.15c0.39,0.17,0.78,0.34,1.18,0.51c1.69-3.66,3.6-7.24,5.02-11.01c1.51-4.01,2.41-4.35,5.25-1.4
		c-3.99,10.37-7.95,20.65-11.86,30.79c-0.49-1.4-1.13-3.26-1.78-5.12c-0.23,0-0.46,0-0.68,0c-0.43,1.83-0.86,3.66-1.49,6.37
		c-1.57-2.54-2.7-4.56-4.02-6.44c-1.61-2.29-1.18-4.44-0.02-6.8c-0.88,0.58-1.76,1.16-2.62,1.73c-2.42-1.81-4.8-3.59-7.17-5.38
		c-0.02,0.13-0.04,0.26-0.07,0.4c-1.26-0.23-2.63-0.88-3.77-0.59c-2.63,0.66-5.21,1.64-7.69,2.75c-2.73,1.22-3.8,3.64-3.6,6.53
		c0.05,0.76,0.57,1.81,1.2,2.16c4.75,2.71,9.59,5.28,14.4,7.9c2.62,1.43,5.38,2.65,7.83,4.33c6.56,4.52,13.1,9.1,19.42,13.94
		c2.67,2.05,4.95,4.7,7.07,7.34c0.64,0.8,0.61,2.82,0.04,3.76c-1.9,3.14-3.93,6.29-6.41,8.97c-3.11,3.36-6.71,6.28-10.14,9.35
		c-0.33,0.3-0.9,0.33-1.68,0.6c0.31-0.85,0.52-1.41,0.96-2.61c-2.15,1.25-3.9,2.03-5.38,3.17c-3.97,3.05-8.66,2.75-13.1,2.48
		c-6.3-0.38-12.56-1.55-19.05-1.81c2.45,0.8,4.9,1.61,7.35,2.41c-0.04,0.18-0.07,0.37-0.11,0.55c-2.48-0.39-5.1-0.38-7.41-1.23
		c-7.35-2.72-14.88-5.17-21.12-10.23c-1.53-1.24-3.08-2.49-4.48-3.87c-1.38-1.36-2.76-2.38-1.63-5.13c0.82-2.02-0.53-4.91-0.99-7.88
		c2.16,0.66,4.19,1.29,6.73,2.06c-0.84-1.93-1.61-3.34-2.04-4.85c-0.22-0.75,0.02-1.76,0.39-2.49c0.12-0.23,1.4-0.14,1.97,0.16
		c5.05,2.56,10.11,5.09,15.05,7.85c2.77,1.54,2.58,1.72,0.86,4.28c-0.45,0.67-0.38,2.58,0.08,2.84c3.86,2.22,7.86,4.2,11.82,6.25
		C456.74,228.8,456.88,228.57,457.01,228.34z M459.11,198.23c-0.21,0.27-0.42,0.54-0.62,0.81c0.85,0.79,1.56,1.99,2.56,2.3
		c2.65,0.83,5.42,1.28,8.15,1.87c4.23,0.92,8.46,1.83,12.69,2.75c0.08-0.32,0.16-0.64,0.24-0.96c-3.26-0.88-6.51-1.78-9.78-2.63
		C467.86,201.21,462.73,202.3,459.11,198.23z M482,222.52c3.06-2.67,6.13-5.35,9.65-8.43C487.74,213.8,483.56,217.49,482,222.52z
		 M444.83,195.73c3.41-2.27,6.28-4.19,9.36-6.25C451.19,189.01,446.41,192.07,444.83,195.73z"/>
	<path d="M227.64,65.95c-0.14-0.14-0.98-0.61-1.05-1.17c-0.51-3.87-1.75-7.94-1.05-11.61c0.98-5.12-0.35-9.87-0.63-14.77
		c-0.13-2.35-0.92-4.65-1.22-6.99c-0.53-4.14,2.41-7.87,6.47-8.83c2.58-0.61,5.05-1.67,7.69-2.56c0.75,2.97,2.77,2.78,4.94,2.42
		c7.92-1.32,15.82-1.45,23.79-0.03c2.79,0.5,5.78-0.24,8.68-0.26c7.64-0.05,15.27-0.02,23.15-0.02c-2.13,4.26-4.05,8.35-6.22,12.3
		c-0.5,0.91-1.78,1.56-2.84,1.95c-9.65,3.55-19.72,4.9-29.91,5.56c-0.84,0.05-1.76-0.02-2.53-0.32c-2.26-0.88-2.28,0.5-2.15,2.02
		c0.06,0.76,0.28,1.51,0.43,2.26c0.51,2.41,0.89,4.62-0.72,7.04c-0.9,1.34-0.39,3.61-0.58,6.28c-1.18,0.41-3.22,1.11-5.52,1.91
		c1.3,0.51,2.64,0.67,3.43,1.42c1.03,0.97,2.05,2.35,2.22,3.66c0.09,0.68-1.53,1.93-2.61,2.35c-2.04,0.79-4.28,1.07-6.37,1.76
		c-1.07,0.35-2,1.14-2.81,2.26c0.52-0.03,1.09,0.08,1.55-0.11c4.25-1.76,8.41-3.79,12.74-5.3c2.61-0.91,5.48-1.26,8.26-1.47
		c5.21-0.38,10.44-0.37,15.65-0.71c2.26-0.15,4.48-0.75,7.24-1.24c-0.11,1.51-0.27,2.81-0.27,4.11c0,1.04,0.36,2.09,0.26,3.11
		c-0.09,0.99-0.37,2.06-0.9,2.88c-0.59,0.9-1.55,1.56-2.4,2.37c1.24,4.4,0.89,5.16-3.69,6.44c-5.01,1.41-10.03,2.8-15.12,3.89
		c-2.6,0.55-5.34,0.47-8.02,0.58c-2.15,0.09-2.69,1.06-2.47,3.14c0.22,2.03,0.07,4.14-0.2,6.17c-0.31,2.26-1.64,3.04-3.63,1.95
		c-7.89-4.28-15.71-8.68-23.5-13.13c-0.54-0.31-0.91-1.33-0.93-2.03c-0.1-3.66-0.16-7.34-0.03-11
		C226.83,70.23,227.3,68.25,227.64,65.95z M247.37,35.46c0.03-3.67-1.53-6.54-4.79-8.53C244.17,29.77,245.77,32.62,247.37,35.46z"/>
	<path d="M326.67,210.56c1.16,0.62,1.83,0.97,2.89,1.54c-0.16-1.03-0.24-1.81-0.39-2.58c-0.45-2.3,0.21-2.92,2.4-2.23
		c3.07,0.96,6.02,4.92,6.17,8.15c0.05,1.11,0.33,2.2,0.6,3.91c1.12-1.24,1.71-1.91,2.29-2.55c1.75,1.1,3.37,2.18,5.06,3.15
		c3.12,1.79,8.33,1.4,11.08-0.75c2.7-2.12,2.6-3.4,0-5.64c-5.7-4.91-11.29-9.95-16.91-14.95c-0.37-0.33-0.62-0.81-0.91-1.2
		c1.75-3.62,1.2-6.83-1.84-9.55c0.56,2.59,1.05,4.89,1.63,7.59c-0.84-0.22-1.61-0.18-2-0.55c-2.73-2.55-6.07-4.79-7.8-7.92
		c-1.08-1.96-2.66-3.68-3.42-5.68c-0.77-2.04-0.23-4.52-0.58-6.77c-0.71-4.62,2.39-8.41,2.61-12.82c0.02-0.41,0.45-0.87,0.8-1.18
		c3.65-3.22,7.3-6.43,10.99-9.61c0.41-0.36,1.03-0.7,1.55-0.69c2.59,0.07,5.22,0,7.74,0.46c4.45,0.82,8.86,1.93,13.24,3.07
		c0.69,0.18,1.16,1.16,2.1,2.15c0.23-0.55,0.53-1.27,0.83-1.99c0.28,0.07,0.55,0.14,0.83,0.21c0.56,0.98,1.32,1.91,1.64,2.96
		c1.81,5.88,3.59,11.78,5.21,17.71c0.31,1.14-0.11,2.48-0.23,4.31c-1.31-0.92-1.9-1.34-2.78-1.95c0.71,3.74,0.23,7.04-1.65,9.53
		c-4.86-5.04-9.59-10.14-14.56-15.01c-2.64-2.59-4.89-2.29-7.3,0.19c-0.41,0.43-1.34,0.56-2,0.49c-0.78-0.08-1.53-0.52-3.03-1.09
		c0.57,1.36,0.73,2.23,1.22,2.84c5.04,6.19,11.04,11.28,17.43,16.08c6.78,5.09,12.99,10.94,19.31,16.62
		c0.96,0.87,1.28,2.55,1.69,3.92c2.52,8.45-1.21,14.76-7.03,20.37c-4.43,4.27-9.68,5.92-15.81,6.2c-9.16,0.42-17.76-1.06-25.73-5.61
		c-1.53-0.87-3.15-1.55-3.03-4.2c0.09-1.97-1.78-3.96-2.26-6.06c-0.61-2.65-0.79-5.42-0.97-8.15
		C325.72,212.5,326.3,211.64,326.67,210.56z M352.55,231.64c0.03,0.24,0.07,0.49,0.1,0.73c1.69-0.37,3.38-0.74,5.62-1.23
		c-1.34-1.65-2.15-2.63-2.96-3.63C354.25,229.09,353.4,230.37,352.55,231.64z M363.22,214.41c-1.26-4.33-3.95-7.68-8.02-10
		C357.87,207.74,360.55,211.08,363.22,214.41z M344.35,228.45c-0.82,2.53,4.87,2.2,1.71,5.55c0.89,0.4,1.68,0.76,2.59,1.17
		c0.45-1.15,0.78-2.03,0.95-2.46C347.64,231.12,345.98,229.77,344.35,228.45z M370.4,209.14c0.06,0.33,0.12,0.67,0.19,1
		c2.07-0.25,4.13-0.5,6.2-0.75c-0.05-0.34-0.1-0.68-0.15-1.02C374.31,206.92,372.48,208.92,370.4,209.14z M362.92,164.05
		c1.56-0.18,3.11-0.37,5.11-0.6C365.54,161.47,364.53,161.54,362.92,164.05z"/>
	<path d="M404.87,233.17c-0.8-0.77-1.24-1.18-1.84-1.75c-0.17,2.91-0.32,5.57-0.48,8.22c-0.27,0.1-0.55,0.2-0.82,0.31
		c-1.17-1.05-2.34-2.09-3.58-3.21c-0.42,0.6-0.85,1.21-1.64,2.32c-0.61-1.25-1.26-2.06-1.38-2.94c-0.46-3.38-0.7-6.79-1.12-10.18
		c-0.31-2.52-0.76-5.01-1.15-7.52c-0.08-0.51-0.2-1.01-0.24-1.51c-0.39-5.85-0.8-11.7-1.15-17.56c-0.37-6.3-0.7-12.61-1-18.91
		c-0.09-1.89-0.03-3.78-0.06-5.68c-0.06-3.12-0.75-3.73-3.9-3.37c-2.54,0.3-5.07,0.65-7.61,0.97c-1.88,0.23-2.93-0.47-2.9-2.51
		c0.01-0.58-0.16-1.2-0.41-1.73c-0.97-2.07-0.92-3.51,1.89-3.63c0.37-0.02,0.72-0.58,1.18-0.99c-4.37-0.96-5-1.99-5.61-8.96
		c6.16-1.58,12.33-3.05,18.82-2.47c1.31,0.12,2.68-0.46,4.03-0.54c0.71-0.04,1.45,0.33,2.46,0.58c2.75-0.12,5.94-0.16,9.11-0.42
		c3.81-0.31,7.6-1,11.42-1.17c3.37-0.14,6.75,0.22,11.05,0.39c-2.45,2.75-1.92,5.04-1.34,7.45c0.46,1.89-1.68,4.49-3.63,4.9
		c-1.64,0.34-3.28,0.65-5.64,1.12c2.03,0.82,3.39,1.37,4.75,1.92c0.05,0.26,0.11,0.52,0.16,0.79c-2.26,0.74-4.49,1.7-6.8,2.16
		c-1.92,0.39-2.4,1.07-2.32,3.06c0.35,8.66,0.46,17.33,0.61,25.99c0.02,1.34-0.24,2.69-0.37,4.03c-0.32,0.01-0.65,0.02-0.97,0.03
		c-0.4-4.79-0.72-9.6-1.23-14.38c-0.62-5.78-1.37-11.55-2.15-17.32c-0.06-0.46-0.79-0.82-1.21-1.23c-0.24,0.13-0.48,0.25-0.71,0.38
		c0.48,3.58,1.16,7.15,1.38,10.75c0.19,3.13-0.2,6.3-0.24,9.45c-0.07,4.53-0.38,9.06,1.72,13.36c1.22,2.49,0.87,5.22,0.81,7.98
		c-0.14,6.85,0.36,13.71,0.58,20.56c0.05,1.46,0.01,2.92,0.01,4.38c-0.34,0.05-0.69,0.1-1.03,0.14c-1.7-5.46-3.41-10.93-5.32-17.04
		C406.26,224.25,405.61,228.42,404.87,233.17z"/>
	<path d="M228.32,123.46c1.93-0.17,3.73-0.34,5.54-0.5c0.05-0.24,0.09-0.47,0.14-0.71c-1.31-0.32-2.6-0.81-3.93-0.93
		c-1.92-0.17-2.85-1.11-2.8-2.95c0.11-3.52,0.48-7.05,0.43-10.56c-0.06-4.18-0.46-8.36-0.69-12.54c-0.14-2.62-0.25-5.24-0.41-8.59
		c4.25,2.51,7.81,4.83,11.58,6.76c4.56,2.34,9.23,4.51,13.98,6.41c1.91,0.76,2.72,1.59,2.23,3.54c-0.63,2.48-1.29,4.96-1.88,7.22
		c14.9-0.59,30.31-1.19,45.71-1.8c0.22,3.93-3.2,5.28-5.04,7.96c0.91,0.21,1.51,0.35,2.11,0.49c0.08,0.21,0.16,0.41,0.24,0.62
		c-2,0.93-3.99,1.87-5.82,2.72c1.99,0.21,4.19,0.44,6.39,0.68c0.06,0.42,0.12,0.83,0.18,1.25c-3.48,1.16-6.95,2.37-10.45,3.47
		c-2.67,0.84-5.8,0.31-7.95,2.78c-0.3,0.35-1.14,0.25-1.74,0.31c-5.72,0.48-11.46,0.89-17.17,1.46c-2.56,0.25-5.08,1.6-7.64-0.05
		c-0.23-0.15-0.86,0.31-1.3,0.49c-4.16,1.76-8.33,3.51-12.49,5.3c-1.67,0.72-2.24,0.03-2.09-1.56c0.22-2.42,0.09-4.31-3.29-3.76
		c-1.12,0.18-2.35-0.49-2.54-2.18C229.44,127.14,228.85,125.55,228.32,123.46z"/>
	<path d="M318.15,225.11c-0.47-1.91-0.95-3.82-1.58-6.38c-1.35,5.91-2.56,11.23-3.86,16.9c-1.93-0.68-3.35-1.17-5.3-1.86
		c-0.53,2.08-1.11,4.37-1.7,6.67c-2.75-7.06-5.57-14.04-4.44-21.74c1.72-0.91,4.15,0.36,5.56-2.23c-2.16-0.1-3.91-0.18-6.16-0.29
		c0-4.19-0.23-8.22,0.05-12.22c0.45-6.37,1.33-12.71,1.83-19.08c0.17-2.19-0.45-4.44-0.34-6.64c0.11-2.16,0.92-4.29,1.02-6.45
		c0.08-1.56-0.17-3.32-0.85-4.7c-1.03-2.1-0.89-3.81-0.41-6.13c1.62-7.82,1.41-6.33,7.71-4.94c2.15,0.47,4.37,0.61,6.57,0.84
		c2.2,0.23,3.34,1.25,3.43,3.6c0.23,6.67,0.61,13.33,0.92,20c0.25,5.49,0.54,10.98,0.64,16.47c0.02,1.11,0.92,3.09-1.61,3.19
		c-0.17,0.01-0.42,1.39-0.41,2.14c0.06,6.35,0.18,12.7,0.23,19.05c0.01,1.23-0.25,2.47-0.38,3.7
		C318.77,225.05,318.46,225.08,318.15,225.11z M315.9,199.43c-1.66,2.98-1.13,7.64,0.94,8.06
		C316.53,204.84,316.23,202.26,315.9,199.43z"/>
	<path d="M73.73,96.8c-2.92,0.64-5.84,1.29-8.99,1.98c13.34,5.64,26.36,11.14,39.37,16.64c-0.06,0.18-0.12,0.35-0.18,0.53
		c-20.74-3.61-41.47-7.23-62.5-10.89c2.73-1.09,5.52-2.22,9-3.61c-9.84-5.02-19.12-9.76-28.41-14.49
		C39.41,89.49,56.77,91.86,73.73,96.8z"/>
	<path d="M553.44,110.48c-5.09,1.43-10.25,2.88-15.4,4.33c-0.04,0.28-0.07,0.57-0.11,0.85c3.91,2.08,7.82,4.15,11.74,6.23
		c-0.07,0.19-0.13,0.38-0.2,0.57c-19.43-0.45-38.86-0.9-58.3-1.35c-0.07-0.22-0.15-0.45-0.22-0.67c10.38-2.97,20.76-5.93,31.79-9.09
		c-3.33-1.78-6.1-3.27-8.87-4.75c0.02-0.18,0.03-0.36,0.05-0.54c2.53-0.18,5.07-0.41,7.6-0.52c7.27-0.33,14.53-0.6,21.8-0.91
		c0.77-0.03,1.53-0.14,2.3-0.22c1.56-0.16,2.85-0.16,3.84,1.58C550.37,107.59,551.92,108.82,553.44,110.48z"/>
	<path d="M67.15,76.28c2.42-0.87,4.24-1.53,6.8-2.45c-9.27-8.27-18.18-16.23-27.32-24.38c1.2,0.52,2.28,0.94,3.33,1.44
		c9.27,4.44,18.51,8.93,27.8,13.34c5.02,2.38,10.13,4.56,15.14,6.94c1.26,0.6,2.3,1.67,3.79,2.79c-3.82,1.55-7.12,0.52-10.11,0.05
		c6.11,5.96,12.33,12.04,18.56,18.11c-0.23,0.31-0.46,0.62-0.69,0.94C91.96,87.94,79.54,82.66,67.15,76.28z"/>
	<path d="M575.64,50.39c-10.14,7.59-20.52,14.79-32.64,19.54c4,1.16,8,2.33,12,3.49c0.06,0.23,0.12,0.45,0.18,0.68
		c-17.7,4.37-34.65,11.35-52.99,14.02c0.69-0.52,1.32-1.14,2.07-1.54c7.62-4.12,15.27-8.18,22.88-12.31
		c1.14-0.62,2.15-1.49,3.74-2.62c-2.25-0.81-3.87-1.39-5.63-2.02c16.83-6.7,33.46-13.32,50.08-19.93
		C575.42,49.92,575.53,50.16,575.64,50.39z"/>
	<path d="M62.6,139.39c2.12-1.75,4.24-3.51,6.36-5.26c-0.08-0.21-0.16-0.41-0.24-0.62c-8.57,0.58-17.14,1.16-25.71,1.74
		c-0.03-0.23-0.07-0.46-0.1-0.69c12.26-4.17,25-6.05,38.22-7.71c-0.85,1.78-1.49,3.13-2.19,4.6c7.77,0,15.29,0,22.81,0
		c0.02,0.2,0.04,0.41,0.06,0.61c-12.96,2.61-25.91,5.23-38.87,7.84C62.84,139.73,62.72,139.56,62.6,139.39z"/>
	<path d="M520.7,53.84c0.82,0.28,1.51,0.52,2.59,0.89c-0.42,0.84-0.6,1.95-1.19,2.24c-7.01,3.57-14.08,7.01-21.14,10.48
		c-0.13,0.06-0.33-0.03-0.21-0.01c2.26-2.48,4.66-5.11,7.36-8.07c-1.31,0.17-2.18,0.28-3.05,0.39c-0.11-0.14-0.21-0.29-0.32-0.43
		c0.97-0.86,1.84-1.87,2.92-2.55c7.43-4.6,14.89-9.14,22.36-13.67c0.63-0.38,1.39-0.56,2.43-0.42
		C528.56,46.38,524.66,50.07,520.7,53.84z"/>
	<path d="M507.44,132.18c13.05,1.88,26.1,3.77,39.15,5.65c-0.01,0.36-0.03,0.72-0.04,1.09c-6.13,0-12.27,0-18.4,0
		c-0.1,0.27-0.19,0.55-0.29,0.82c1.17,1.48,2.33,2.97,3.5,4.45c-0.17,0.27-0.33,0.54-0.5,0.82c-7.9-3.88-15.79-7.77-23.69-11.65
		C507.26,132.97,507.35,132.58,507.44,132.18z"/>
	<path d="M550.15,103.46c9.81,0,19.09,0,28.36,0c0.03,0.12,0.06,0.24,0.09,0.36c-1.5,0.41-2.99,0.83-4.5,1.21
		c-4.47,1.13-8.94,2.25-13.42,3.35C557.15,109.26,552.65,107.35,550.15,103.46z"/>
	<path d="M445.26,21.74c-3.88,0-7.75,0-11.63,0c0.01-0.2,0.01-0.39,0.02-0.59c3.88,0,7.75,0,11.63,0
		C445.26,21.35,445.26,21.55,445.26,21.74z"/>
</g>
</svg>
